<svg width="240" height="39" viewBox="0 0 240 39" fill="none" xmlns="http://www.w3.org/2000/svg">
<g clip-path="url(#clip0_2357_34362)">
<path d="M27.967 0.878913C20.242 0.874913 12.182 2.61491 4.04696 4.87191C3.01396 5.07991 2.00596 5.75591 1.47296 6.59191C0.982961 7.37991 0.804961 8.17091 0.651961 8.99991C-0.138039 13.4279 -0.0420386 17.7759 0.121961 22.5939C0.157961 23.6969 0.321961 25.0039 0.836961 25.7989C1.37496 26.6019 2.29696 27.1119 3.39796 27.2789C4.80457 27.4852 6.21558 27.6603 7.62996 27.8039L7.31796 36.5019C7.26996 37.1939 7.60796 37.7689 8.02796 38.0999C8.40396 38.3859 8.82296 38.5129 9.25296 38.5449C10.113 38.6099 11.122 38.2419 11.623 37.2879C13.818 33.0639 15.195 31.1989 17.94 28.3929C25.098 28.5689 31.347 28.1709 38.422 27.6479C40.923 27.5829 42.64 25.5379 43.094 23.9049C44.451 19.6729 44.662 14.4489 44.806 9.16791C44.867 7.07491 44.141 5.01991 42.856 3.93391C41.634 2.94291 40.154 2.58391 38.798 2.21591C35.031 1.36291 31.263 0.904913 27.967 0.878913ZM38.257 4.18891C39.615 4.55791 40.812 4.91291 41.567 5.52591C42.827 6.86491 42.785 7.75591 42.767 9.20091C42.625 14.3229 42.379 19.2939 41.223 23.0609C40.725 24.4659 39.857 25.4659 38.217 25.6169C31.009 26.1499 24.755 26.5619 17.51 26.3559C17.3689 26.3514 17.2284 26.3759 17.0972 26.4278C16.9659 26.4798 16.8467 26.5581 16.747 26.6579C13.703 29.7319 12.146 31.8679 9.82596 36.3339C9.77196 36.4359 9.65496 36.4979 9.51096 36.5089C9.41396 36.5039 9.37496 36.4289 9.36896 36.3609L9.68296 26.9289C9.70196 26.4199 9.28196 25.9339 8.77596 25.8789C7.08408 25.7173 5.39681 25.5106 3.71596 25.2589C2.98996 25.1479 2.72196 24.9489 2.52296 24.6529C2.17696 23.8279 2.18496 23.3179 2.15796 22.5249C1.99596 17.7499 1.91596 13.5769 2.64896 9.42491C2.71696 8.81091 2.94696 8.18291 3.19096 7.65791C3.59496 7.02591 4.21396 6.93291 4.83496 6.76091C12.791 4.56391 20.575 2.92091 27.903 2.91591C31.495 3.04591 35.267 3.40591 38.257 4.18891ZM10.778 12.2789C9.68196 13.5919 9.79096 15.3749 10.638 16.5689C11.08 17.1939 11.77 17.6969 12.61 17.8109C13.701 17.9009 14.393 17.4589 15.14 16.9509C16.493 15.7749 16.63 13.7229 15.601 12.2409C15.077 11.4859 14.239 11.0329 13.383 11.0009C12.211 11.0129 11.415 11.5359 10.778 12.2779V12.2789ZM22.634 11.2069C21.542 11.2419 20.659 11.9979 20.12 12.8139C19.503 13.7469 19.143 14.9149 19.642 16.0599C20.602 18.2629 23.919 18.2359 25.242 15.9969C25.852 14.9649 25.696 13.7919 25.242 12.9409C24.79 12.0909 24.106 11.3979 23.111 11.2389C22.9534 11.213 22.7936 11.2023 22.634 11.2069ZM32.259 11.4139C31.919 11.4059 31.569 11.4379 31.241 11.5249C29.929 11.8749 28.812 13.2289 28.981 14.9619C29.067 15.8339 29.468 16.6839 30.191 17.2699C30.914 17.8549 31.964 18.1169 33.071 17.8899C34.343 17.6299 35.131 16.6049 35.394 15.6149C35.657 14.6249 35.591 13.6159 34.98 12.7979C34.6621 12.3752 34.2517 12.0307 33.7803 11.7908C33.3089 11.551 32.7878 11.422 32.259 11.4139ZM13.294 13.0369C13.539 13.0389 13.732 13.1169 13.931 13.4029C14.376 14.0449 14.252 15.0179 13.803 15.4079C13.356 15.7979 13.077 15.8319 12.881 15.8059C12.685 15.7789 12.486 15.6439 12.308 15.3919C11.968 14.9119 11.868 14.1359 12.315 13.5819C12.553 13.2659 12.99 13.0689 13.295 13.0369H13.294ZM22.777 13.2599C22.815 13.2659 23.241 13.5129 23.445 13.8959C23.649 14.2789 23.687 14.6349 23.493 14.9619C22.916 15.9379 21.689 15.6739 21.503 15.2489C21.433 15.0869 21.486 14.4359 21.823 13.9289C22.158 13.4199 22.58 13.2289 22.777 13.2589V13.2599ZM33.341 14.0079C33.403 14.0909 33.554 14.6479 33.437 15.0899C33.319 15.5319 33.127 15.8049 32.657 15.9009C32.055 16.0249 31.717 15.9009 31.464 15.6939C31.21 15.4889 31.039 15.1419 31.002 14.7709C30.912 13.8509 31.242 13.6379 31.766 13.4979C32.376 13.3479 33.066 13.6099 33.341 14.0079Z" fill="white"/>
<path d="M57.61 4.99626C57.626 4.73626 57.721 4.50226 57.897 4.29526C57.9826 4.19378 58.0903 4.11313 58.2117 4.05942C58.3332 4.00571 58.4653 3.98035 58.598 3.98526H65.424C65.654 3.98526 65.891 4.08126 66.136 4.27226C66.2508 4.35468 66.3441 4.46345 66.4082 4.58944C66.4722 4.71542 66.5051 4.85494 66.504 4.99626V15.8893H77.925V4.99626C77.925 4.72026 78.021 4.48326 78.212 4.28426C78.404 4.08426 78.652 3.98426 78.959 3.98426H85.693C85.999 3.98426 86.267 4.06126 86.497 4.21426C86.727 4.36826 86.842 4.61326 86.842 4.95026V37.1003C86.842 37.4373 86.742 37.6903 86.542 37.8583C86.344 38.0273 86.083 38.1113 85.762 38.1113H78.959C78.653 38.1113 78.404 38.0273 78.212 37.8583C78.021 37.6903 77.925 37.4383 77.925 37.1003V24.0473H66.504V37.1003C66.504 37.4223 66.4 37.6703 66.194 37.8473C65.987 38.0233 65.707 38.1113 65.354 38.1113H58.598C57.955 38.1113 57.626 37.8123 57.61 37.2153V4.99626ZM120.485 37.7213C120.286 37.8893 120.075 37.9963 119.853 38.0423C119.646 38.087 119.434 38.1104 119.222 38.1123H115.752C115.476 38.1123 115.238 38.0623 115.039 37.9623C114.839 37.8623 114.671 37.7283 114.533 37.5603C114.392 37.3857 114.276 37.1922 114.189 36.9853C114.096 36.7691 114.02 36.5465 113.959 36.3193L113.247 33.3773C113.017 33.8523 112.684 34.3923 112.247 34.9973C111.774 35.6393 111.213 36.2116 110.581 36.6973C109.907 37.2273 109.102 37.6713 108.168 38.0313C107.233 38.3913 106.161 38.5713 104.95 38.5713C103.204 38.5713 101.618 38.2343 100.193 37.5603C98.7979 36.9084 97.5566 35.9684 96.551 34.8023C95.548 33.6383 94.77 32.2783 94.219 30.7223C93.667 29.1683 93.391 27.5093 93.391 25.7483V10.6953C93.391 10.1133 93.518 9.67326 93.771 9.37426C94.023 9.07526 94.425 8.92626 94.977 8.92626H100.285C100.945 8.92626 101.396 9.03626 101.641 9.25926C101.886 9.48126 102.009 9.91426 102.009 10.5573V25.5173C102.009 26.1773 102.159 26.8013 102.457 27.3913C102.756 27.9813 103.15 28.5013 103.641 28.9533C104.131 29.4053 104.686 29.7623 105.307 30.0223C105.927 30.2823 106.559 30.4123 107.203 30.4123C107.754 30.4123 108.325 30.2823 108.915 30.0223C109.509 29.7589 110.059 29.4062 110.546 28.9763C111.044 28.5403 111.454 28.0263 111.776 27.4363C112.098 26.8463 112.258 26.2223 112.258 25.5643V10.6263C112.258 10.3663 112.308 10.1063 112.408 9.84526C112.508 9.58526 112.657 9.38526 112.856 9.24726C113.055 9.12526 113.243 9.04126 113.419 8.99526C113.595 8.94926 113.799 8.92526 114.028 8.92526H119.222C119.88 8.92526 120.355 9.08726 120.646 9.40826C120.937 9.73026 121.083 10.1593 121.083 10.6953V36.4113C121.083 36.7013 121.018 36.9703 120.888 37.2153C120.758 37.4603 120.578 37.6523 120.348 37.7893L120.485 37.7213ZM147.166 34.5493C146.752 34.9633 146.296 35.4073 145.799 35.8823C145.301 36.3573 144.753 36.8023 144.156 37.2153C143.555 37.6309 142.907 37.9743 142.226 38.2383C141.514 38.5104 140.758 38.6468 139.996 38.6403C137.913 38.6403 135.994 38.2503 134.239 37.4683C132.528 36.7176 130.988 35.6268 129.712 34.2623C128.448 32.9063 127.46 31.3093 126.748 29.4703C126.035 27.6323 125.679 25.6563 125.679 23.5413C125.679 21.4113 126.035 19.4313 126.748 17.6013C127.46 15.7713 128.448 14.1773 129.712 12.8213C130.987 11.458 132.527 10.3709 134.239 9.62726C135.994 8.85326 137.913 8.46626 139.996 8.46626C140.839 8.46626 141.609 8.58926 142.306 8.83426C142.979 9.06727 143.619 9.38374 144.213 9.77626C144.788 10.1593 145.316 10.5923 145.799 11.0743C146.281 11.5573 146.737 12.0283 147.166 12.4883V1.98526C147.166 1.49526 147.316 1.08226 147.614 0.745258C147.913 0.407258 148.361 0.239258 148.959 0.239258H154.129C154.329 0.239258 154.539 0.281258 154.761 0.365258C154.983 0.450258 155.186 0.568258 155.371 0.722258C155.554 0.875258 155.703 1.05926 155.818 1.27326C155.933 1.48826 155.991 1.72526 155.991 1.98526V36.3423C155.991 37.5223 155.371 38.1123 154.129 38.1123H149.625C149.319 38.1123 149.081 38.0723 148.913 37.9963C148.746 37.9214 148.6 37.8071 148.487 37.6633C148.359 37.4946 148.255 37.3092 148.177 37.1123C148.069 36.8528 147.954 36.5961 147.833 36.3423L147.166 34.5493ZM133.952 23.5413C133.944 24.5077 134.104 25.4681 134.423 26.3803C134.737 27.2603 135.185 28.0233 135.768 28.6663C136.356 29.3143 137.072 29.8344 137.87 30.1943C138.69 30.5703 139.598 30.7573 140.594 30.7573C141.574 30.7573 142.497 30.5813 143.363 30.2293C144.204 29.8923 144.972 29.3967 145.626 28.7693C146.275 28.1409 146.802 27.3969 147.178 26.5753C147.568 25.7323 147.787 24.8283 147.833 23.8633V23.5413C147.836 22.5796 147.649 21.6268 147.281 20.7383C146.925 19.8672 146.406 19.0717 145.753 18.3943C145.098 17.7176 144.318 17.1751 143.455 16.7973C142.553 16.4023 141.578 16.2026 140.594 16.2113C139.598 16.2113 138.69 16.4063 137.87 16.7973C137.05 17.1873 136.35 17.7203 135.768 18.3943C135.176 19.0842 134.72 19.8794 134.423 20.7383C134.107 21.6389 133.948 22.5869 133.953 23.5413H133.952ZM182.672 34.5493C182.258 34.9633 181.802 35.4073 181.304 35.8823C180.806 36.3573 180.258 36.8023 179.661 37.2153C179.06 37.6309 178.412 37.9743 177.731 38.2383C177.019 38.5104 176.263 38.6468 175.501 38.6403C173.418 38.6403 171.499 38.2503 169.745 37.4683C168.034 36.7177 166.493 35.6269 165.217 34.2623C163.954 32.9063 162.965 31.3093 162.253 29.4703C161.541 27.6323 161.184 25.6563 161.184 23.5413C161.184 21.4113 161.541 19.4313 162.253 17.6013C162.965 15.7713 163.953 14.1773 165.217 12.8213C166.492 11.4579 168.033 10.3708 169.745 9.62726C171.499 8.85326 173.418 8.46626 175.501 8.46626C176.344 8.46626 177.114 8.58926 177.811 8.83426C178.484 9.06727 179.124 9.38374 179.718 9.77626C180.293 10.1593 180.821 10.5923 181.304 11.0743C181.787 11.5573 182.242 12.0283 182.671 12.4883V1.98526C182.671 1.49526 182.821 1.08226 183.119 0.745258C183.419 0.407258 183.866 0.239258 184.464 0.239258H189.634C189.834 0.239258 190.044 0.281258 190.266 0.365258C190.489 0.450258 190.692 0.568258 190.876 0.722258C191.059 0.875258 191.209 1.05926 191.324 1.27326C191.438 1.48826 191.496 1.72526 191.496 1.98526V36.3423C191.496 37.5223 190.876 38.1123 189.634 38.1123H185.13C184.824 38.1123 184.586 38.0723 184.418 37.9963C184.251 37.9212 184.106 37.807 183.993 37.6633C183.865 37.4946 183.761 37.3092 183.683 37.1123C183.574 36.8528 183.459 36.5961 183.338 36.3423L182.672 34.5493ZM169.457 23.5413C169.449 24.5077 169.609 25.4681 169.928 26.3803C170.243 27.2603 170.691 28.0233 171.273 28.6663C171.862 29.3144 172.578 29.8345 173.376 30.1943C174.196 30.5703 175.103 30.7573 176.099 30.7573C177.079 30.7573 178.002 30.5813 178.868 30.2293C179.709 29.8925 180.478 29.3968 181.132 28.7693C181.781 28.1408 182.306 27.3967 182.682 26.5753C183.073 25.7323 183.292 24.8283 183.338 23.8633V23.5413C183.341 22.5796 183.154 21.6268 182.786 20.7383C182.43 19.8672 181.911 19.0717 181.258 18.3943C180.603 17.7176 179.823 17.1751 178.96 16.7973C178.058 16.4023 177.083 16.2026 176.099 16.2113C175.103 16.2113 174.195 16.4063 173.376 16.7973C172.556 17.1873 171.855 17.7203 171.273 18.3943C170.681 19.0842 170.225 19.8794 169.928 20.7383C169.612 21.6389 169.452 22.5869 169.457 23.5413ZM197.61 2.00826C197.61 1.51826 197.732 1.10526 197.977 0.768258C198.223 0.430258 198.644 0.262258 199.241 0.262258H204.871C205.025 0.262258 205.186 0.304258 205.354 0.388258C205.531 0.478845 205.69 0.599671 205.825 0.745258C205.971 0.898258 206.093 1.08226 206.193 1.29626C206.293 1.51126 206.343 1.74826 206.343 2.00826V36.3423C206.343 36.9243 206.178 37.3643 205.848 37.6633C205.519 37.9623 205.094 38.1113 204.573 38.1113H199.241C198.644 38.1113 198.223 37.9613 197.977 37.6633C197.732 37.3643 197.61 36.9233 197.61 36.3423V2.00826ZM236.31 34.6183C234.978 35.8492 233.437 36.8335 231.76 37.5253C230.062 38.225 228.242 38.5806 226.405 38.5713C224.305 38.5713 222.322 38.1883 220.453 37.4213C218.626 36.6829 216.957 35.603 215.535 34.2393C214.118 32.873 212.979 31.2458 212.18 29.4473C211.352 27.6093 210.939 25.6103 210.939 23.4493C210.939 22.1013 211.103 20.7953 211.433 19.5313C211.752 18.2945 212.223 17.1021 212.835 15.9813C213.44 14.8781 214.181 13.8551 215.041 12.9363C215.898 12.0159 216.876 11.2156 217.948 10.5573C219.038 9.89041 220.213 9.37248 221.441 9.01726C222.733 8.6448 224.071 8.45925 225.416 8.46626C226.688 8.46626 227.921 8.63526 229.116 8.97226C230.311 9.30926 231.434 9.78426 232.483 10.3963C233.533 11.0093 234.493 11.7453 235.367 12.6033C236.229 13.447 236.985 14.3922 237.619 15.4183C238.247 16.4368 238.738 17.534 239.079 18.6813C239.423 19.8383 239.596 21.0293 239.596 22.2543C239.596 23.0513 239.584 23.7023 239.561 24.2083C239.538 24.7133 239.419 25.1163 239.205 25.4143C238.99 25.7143 238.635 25.9203 238.136 26.0343C237.638 26.1503 236.906 26.2073 235.942 26.2073H219.396C219.549 27.1873 219.859 28.0073 220.326 28.6673C220.759 29.292 221.309 29.8263 221.946 30.2403C222.559 30.6313 223.21 30.9103 223.9 31.0803C224.539 31.242 225.194 31.3266 225.853 31.3323C226.405 31.3323 226.971 31.2743 227.553 31.1603C228.127 31.0477 228.691 30.894 229.243 30.7003C229.759 30.521 230.258 30.2978 230.736 30.0333C231.188 29.7813 231.552 29.5163 231.828 29.2413C232.073 29.0413 232.284 28.8923 232.46 28.7923C232.636 28.6923 232.824 28.6433 233.023 28.6433C233.223 28.6433 233.425 28.7133 233.633 28.8503C233.885 29.0264 234.119 29.2263 234.333 29.4473L236.769 32.2053C236.937 32.4053 237.045 32.5853 237.091 32.7453C237.137 32.9063 237.16 33.0713 237.16 33.2393C237.16 33.5463 237.075 33.8103 236.907 34.0323C236.737 34.2556 236.537 34.453 236.31 34.6183ZM225.256 15.4753C224.658 15.4753 224.08 15.5943 223.521 15.8313C222.954 16.0735 222.423 16.3946 221.946 16.7853C221.456 17.1833 221.016 17.6353 220.625 18.1413C220.252 18.6183 219.932 19.1347 219.671 19.6813H231.414C231.106 19.1051 230.757 18.552 230.369 18.0263C230 17.5275 229.568 17.0793 229.082 16.6933C228.585 16.3027 228.026 15.9997 227.427 15.7973C226.807 15.5823 226.083 15.4753 225.256 15.4753Z" fill="white"/>
</g>
<defs>
<clipPath id="clip0_2357_34362">
<rect width="240" height="39" fill="white"/>
</clipPath>
</defs>
</svg>
