<svg width="24" height="24" viewBox="0 0 24 24" fill="none" xmlns="http://www.w3.org/2000/svg">
<path d="M12 2C6.47708 2 2 6.47708 2 12C2 17.5229 6.47708 22 12 22C17.5229 22 22 17.5229 22 12C22 6.47708 17.5229 2 12 2ZM16.0677 10.1917C16.0712 10.2771 16.0729 10.3618 16.0729 10.4458C16.0729 13.05 14.0927 16.051 10.4698 16.051C9.39931 16.0525 8.35113 15.7451 7.45104 15.1656C7.60451 15.1837 7.76111 15.1924 7.92083 15.1917C8.84375 15.1917 9.69271 14.8781 10.3667 14.349C9.95595 14.3409 9.55799 14.2049 9.22824 13.9599C8.89849 13.7149 8.65338 13.3732 8.52708 12.9823C8.82204 13.0384 9.12589 13.0266 9.41562 12.9479C8.96966 12.8581 8.56855 12.6167 8.28047 12.2646C7.9924 11.9125 7.83513 11.4716 7.83542 11.0167V10.9927C8.10104 11.1396 8.40521 11.2292 8.72812 11.2396C8.31021 10.9614 8.01436 10.534 7.90109 10.0449C7.78782 9.55583 7.86568 9.04193 8.11875 8.60833C8.61367 9.21647 9.23069 9.71399 9.92994 10.0687C10.6292 10.4235 11.3951 10.6275 12.1781 10.6677C12.0786 10.2451 12.1214 9.80146 12.3 9.40573C12.4786 9.01 12.7829 8.68436 13.1657 8.47944C13.5485 8.27452 13.9882 8.20179 14.4166 8.27257C14.8449 8.34335 15.2379 8.55367 15.5344 8.87083C15.9752 8.78356 16.3979 8.62188 16.7844 8.39271C16.6375 8.8491 16.3299 9.23664 15.9187 9.48333C16.3092 9.43629 16.6905 9.33132 17.05 9.17187C16.7865 9.56808 16.4538 9.91354 16.0677 10.1917Z" fill="white"/>
</svg>
